<?xml version="1.0" encoding="UTF-8"?>
<svg id="a" data-name="Ebene 1" xmlns="http://www.w3.org/2000/svg" xmlns:xlink="http://www.w3.org/1999/xlink" viewBox="0 0 295 180">
  <defs>
    <style>
      .c {
        fill: none;
        stroke: #000;
        stroke-width: 2px;
      }

      .d {
        fill: url(#b);
        stroke-width: 0px;
      }
    </style>
    <linearGradient id="b" data-name="Unbenannter Verlauf 95" x1="217.336" y1="36.602" x2="184.826" y2="192.039" gradientUnits="userSpaceOnUse">
      <stop offset=".133" stop-color="#87dadc"/>
      <stop offset="1" stop-color="#f9f58c"/>
    </linearGradient>
  </defs>
  <path class="d" d="m241.026,98.275c7.745,4.371,12.961,12.58,12.961,21.985,0,13.993-11.544,25.337-25.785,25.337,0,16.791-13.853,30.403-30.943,30.403-17.088,0-30.941-13.612-30.941-30.404,0-.169.001-.338.004-.506-11.771-2.346-20.631-12.572-20.631-24.831,0-9.408,5.218-17.618,12.966-21.989-3.25-3.582-5.225-8.306-5.225-13.483,0-11.194,9.235-20.269,20.628-20.269h51.569c11.391,0,20.627,9.075,20.627,20.269,0,5.179-1.976,9.904-5.229,13.487Z"/>
  <path class="c" d="m198.245,4v60.518"/>
  <path class="c" d="m198.245,109.112v-13.888m0-13.888l-14.333,11.904m14.333-11.904v13.888m0-13.888v-16.816m0,30.704l14.333,11.904"/>
  <path class="c" d="m101.745,19.937v135.157"/>
  <path class="c" d="m101.745,129.556l22.236-11.987"/>
  <path class="c" d="m101.745,102.977l27.968-12.855"/>
  <path class="c" d="m101.745,75.355l32.312-14.418"/>
  <path class="c" d="m118.943,142.759l-17.198,12.334-17.198-12.334"/>
  <path class="c" d="m101.745,129.556l-22.236-11.987"/>
  <path class="c" d="m101.745,102.977l-27.968-12.855"/>
  <path class="c" d="m101.745,75.355l-32.312-14.418"/>
  <path class="c" d="m183.557,4.002c0,14.136-11.46,25.595-25.595,25.595s-25.595-11.46-25.595-25.595"/>
  <path class="c" d="m117.681,4.002c0,8.801-7.135,15.936-15.935,15.936s-15.936-7.135-15.936-15.936"/>
  <path class="c" d="m285.162,4.002h-123.632"/>
  <path class="c" d="m133.47,4.002H9.838"/>
</svg>