<?xml version="1.0" encoding="utf-8"?>
<!-- Generator: Adobe Illustrator 28.0.0, SVG Export Plug-In . SVG Version: 6.00 Build 0)  -->
<svg version="1.1" id="Ebene_1" xmlns="http://www.w3.org/2000/svg" xmlns:xlink="http://www.w3.org/1999/xlink" x="0px" y="0px"
	 viewBox="0 0 340.55 253.05" style="enable-background:new 0 0 340.55 253.05;" xml:space="preserve">
<g>
	<g>
		<path d="M134.26,218.33c3.57,0,6.78-1.19,8.98-3.53l-1.15-1.19c-2.16,2.13-4.8,3.03-7.76,3.03c-6.46,0-11.33-4.76-11.33-11.11
			c0-6.35,4.87-11.11,11.33-11.11c2.96,0,5.59,0.87,7.76,2.99l1.15-1.19c-2.2-2.34-5.41-3.5-8.98-3.5c-7.5,0-13.09,5.45-13.09,12.81
			C121.16,212.88,126.75,218.33,134.26,218.33 M149.41,218.15h16.38v-1.66h-14.54V192.9h-1.84V218.15z M179.89,218.33
			c6.28,0,10.14-3.68,10.14-10.89V192.9h-1.84v14.47c0,6.31-2.99,9.27-8.26,9.27c-5.27,0-8.3-2.96-8.3-9.27V192.9h-1.84v14.54
			C169.79,214.65,173.61,218.33,179.89,218.33 M213.62,205.13c2.52-0.83,4.22-2.78,4.22-5.77c0-4.18-3.28-6.46-8.69-6.46h-10.53
			v25.25h11.25c6.2,0,9.31-2.42,9.31-6.67C219.17,207.98,217.19,205.81,213.62,205.13 M209.07,194.48c4.36,0,6.89,1.7,6.89,5.01
			c0,3.35-2.52,5.05-6.89,5.05h-8.62v-10.06H209.07z M209.87,216.56h-9.41v-10.42h9.41c4.83,0,7.47,1.59,7.47,5.19
			C217.33,214.97,214.7,216.56,209.87,216.56"/>
	</g>
</g>
<polygon points="135.17,35.56 135.17,105.56 205.17,105.56 205.17,102.09 138.63,102.09 138.63,39.02 201.7,39.02 201.7,89.88 
	205.17,89.88 205.17,35.56 "/>
<g>
	<path d="M49.8,140.57H34.66v34.96h8.09v-9.64h7.04c9.34,0,15.18-4.85,15.18-12.64C64.98,145.42,59.14,140.57,49.8,140.57
		 M49.35,159.3h-6.59v-12.14h6.59c4.94,0,7.44,2.25,7.44,6.09C56.79,157.06,54.29,159.3,49.35,159.3 M70.72,175.54h8.09v-34.96
		h-8.09V175.54z M104.04,176.14c10.99,0,19.13-7.64,19.13-18.08c0-10.44-8.14-18.08-19.13-18.08c-11.04,0-19.13,7.69-19.13,18.08
		C84.91,168.44,93,176.14,104.04,176.14 M104.04,169.24c-6.24,0-10.94-4.55-10.94-11.19c0-6.64,4.69-11.19,10.94-11.19
		c6.24,0,10.94,4.55,10.94,11.19C114.98,164.7,110.28,169.24,104.04,169.24 M154.34,140.57v21.23l-17.38-21.23h-6.69v34.96h7.99
		v-21.23l17.43,21.23h6.64v-34.96H154.34z M179.66,169.04v-8.09h16.23v-6.29h-16.23v-7.59h18.38v-6.49h-26.42v34.96h27.07v-6.49
		H179.66z M213.17,169.04v-8.09h16.23v-6.29h-16.23v-7.59h18.38v-6.49h-26.42v34.96h27.07v-6.49H213.17z M270.61,175.54l-7.84-11.24
		c4.55-1.95,7.19-5.79,7.19-11.04c0-7.84-5.84-12.69-15.18-12.69h-15.13v34.96h8.09v-9.74h7.04h0.4l6.74,9.74H270.61z
		 M261.77,153.26c0,3.8-2.5,6.09-7.44,6.09h-6.59v-12.19h6.59C259.27,147.17,261.77,149.41,261.77,153.26 M290.84,176.14
		c9.99,0,14.83-4.99,14.83-10.84c0-12.84-20.33-8.39-20.33-14.83c0-2.2,1.85-4,6.64-4c3.1,0,6.44,0.9,9.69,2.75l2.5-6.14
		c-3.25-2.05-7.74-3.1-12.14-3.1c-9.94,0-14.73,4.94-14.73,10.89c0,12.99,20.33,8.49,20.33,15.03c0,2.15-1.95,3.75-6.74,3.75
		c-4.2,0-8.59-1.5-11.54-3.65l-2.75,6.09C279.7,174.49,285.3,176.14,290.84,176.14"/>
</g>
</svg>
