<?xml version="1.0" encoding="UTF-8"?>
<svg id="Ebene_1" data-name="Ebene 1" xmlns="http://www.w3.org/2000/svg" viewBox="0 0 24 24">
  <defs>
    <style>
      .cls-1 {
        stroke-width: 0px;
      }
    </style>
  </defs>
  <path class="cls-1" d="m2.603,9.782l4.616,4.617.526-.624c.207-.246.434-.472.675-.675l.627-.526-4.618-4.618-1.825,1.826Z"/>
  <path class="cls-1" d="m6.53,16.064H0v2.582h6.53l-.071-.815c-.014-.157-.02-.316-.02-.476s.006-.319.02-.475l.071-.815Z"/>
  <path class="cls-1" d="m10.709,11.883l.813-.069c.314-.027.642-.027.956,0l.813.069v-6.529h-2.583v6.529Z"/>
  <path class="cls-1" d="m17.47,16.064l.071.815c.014.156.02.315.02.475s-.006.319-.02.476l-.071.815h6.53v-2.582h-6.53Z"/>
  <path class="cls-1" d="m19.573,7.957l-4.617,4.617.624.526c.244.205.471.432.676.675l.526.624,4.617-4.617-1.826-1.826Z"/>
</svg>