<svg width="24" height="25" viewBox="0 0 24 25" fill="none" xmlns="http://www.w3.org/2000/svg">
<g clip-path="url(#clip0_215_4279)">
<path d="M19 0.537842H5C2.239 0.537842 0 2.77684 0 5.53784V19.5378C0 22.2988 2.239 24.5378 5 24.5378H19C21.762 24.5378 24 22.2988 24 19.5378V5.53784C24 2.77684 21.762 0.537842 19 0.537842ZM8 19.5378H5V8.53784H8V19.5378ZM6.5 7.26984C5.534 7.26984 4.75 6.47984 4.75 5.50584C4.75 4.53184 5.534 3.74184 6.5 3.74184C7.466 3.74184 8.25 4.53184 8.25 5.50584C8.25 6.47984 7.467 7.26984 6.5 7.26984ZM20 19.5378H17V13.9338C17 10.5658 13 10.8208 13 13.9338V19.5378H10V8.53784H13V10.3028C14.396 7.71684 20 7.52584 20 12.7788V19.5378Z" fill="black"/>
</g>
<defs>
<clipPath id="clip0_215_4279">
<rect width="24" height="24" fill="white" transform="translate(0 0.537842)"/>
</clipPath>
</defs>
</svg>
